<svg width="16" height="18" viewBox="0 0 16 18" fill="none" xmlns="http://www.w3.org/2000/svg">
<path d="M10.97 16.8076C10.97 16.9319 10.9206 17.0511 10.8327 17.1391C10.7448 17.227 10.6256 17.2763 10.5013 17.2763H5.50128C5.37696 17.2763 5.25773 17.227 5.16982 17.1391C5.08192 17.0511 5.03253 16.9319 5.03253 16.8076C5.03253 16.6833 5.08192 16.564 5.16982 16.4761C5.25773 16.3882 5.37696 16.3388 5.50128 16.3388H10.5013C10.6256 16.3388 10.7448 16.3882 10.8327 16.4761C10.9206 16.564 10.97 16.6833 10.97 16.8076ZM15.6333 4.09119C14.944 2.74289 13.9083 1.60231 12.6325 0.786502C12.5276 0.725899 12.4033 0.708262 12.2857 0.737287C12.1681 0.766312 12.0663 0.839746 12.0016 0.942193C11.937 1.04464 11.9145 1.16814 11.9389 1.2868C11.9633 1.40546 12.0327 1.51007 12.1325 1.57869C13.2718 2.30195 14.1949 3.31921 14.8044 4.52322C14.8328 4.57785 14.8716 4.62636 14.9187 4.66598C14.9659 4.7056 15.0203 4.73555 15.079 4.75412C15.1377 4.77269 15.1995 4.77952 15.2608 4.77422C15.3221 4.76892 15.3818 4.75159 15.4364 4.72322C15.4911 4.69485 15.5396 4.656 15.5792 4.60889C15.6188 4.56177 15.6488 4.50732 15.6673 4.44863C15.6859 4.38994 15.6927 4.32816 15.6874 4.26684C15.6821 4.20551 15.6648 4.14582 15.6364 4.09119H15.6333ZM1.21066 4.52322C1.82015 3.31921 2.74322 2.30195 3.88253 1.57869C3.98237 1.51007 4.05176 1.40546 4.07617 1.2868C4.10057 1.16814 4.07808 1.04464 4.01342 0.942193C3.94876 0.839746 3.84695 0.766312 3.72933 0.737287C3.61171 0.708262 3.48743 0.725899 3.38253 0.786502C2.10678 1.60231 1.07108 2.74289 0.38175 4.09119C0.347594 4.14601 0.325134 4.20729 0.315779 4.27119C0.306425 4.3351 0.310378 4.40025 0.32739 4.46255C0.344402 4.52486 0.374106 4.58298 0.414639 4.63326C0.455172 4.68355 0.505659 4.72491 0.562933 4.75476C0.620207 4.78461 0.683032 4.80231 0.747466 4.80673C0.811901 4.81116 0.876555 4.80222 0.937373 4.78048C0.99819 4.75874 1.05386 4.72467 1.10089 4.6804C1.14791 4.63613 1.18528 4.58262 1.21066 4.52322ZM15.195 13.1303C15.292 13.296 15.3436 13.4843 15.3447 13.6762C15.3459 13.8682 15.2964 14.0571 15.2014 14.2239C15.1064 14.3907 14.9692 14.5296 14.8035 14.6266C14.6378 14.7235 14.4495 14.7752 14.2575 14.7763H1.75753C1.56596 14.7755 1.37799 14.7243 1.21242 14.6279C1.04684 14.5316 0.909483 14.3934 0.814081 14.2273C0.718678 14.0612 0.668581 13.8729 0.668803 13.6813C0.669025 13.4898 0.719557 13.3016 0.815343 13.1357C1.53331 11.892 1.91378 10.1373 1.91378 8.0576C1.91378 6.44143 2.5558 4.89146 3.6986 3.74866C4.8414 2.60586 6.39137 1.96385 8.00753 1.96385C9.62369 1.96385 11.1737 2.60586 12.3165 3.74866C13.4593 4.89146 14.1013 6.44143 14.1013 8.0576C14.1013 10.167 14.4716 11.8732 15.2013 13.1303H15.195ZM14.3849 13.599C13.5771 12.1982 13.1638 10.3342 13.1638 8.0576C13.1638 6.69007 12.6205 5.37856 11.6536 4.41158C10.6866 3.44459 9.37505 2.90135 8.00753 2.90135C6.64001 2.90135 5.3285 3.44459 4.36151 4.41158C3.39453 5.37856 2.85128 6.69007 2.85128 8.0576C2.85128 10.3357 2.438 12.1982 1.62394 13.6045C1.61022 13.6282 1.603 13.6552 1.603 13.6826C1.603 13.71 1.61022 13.737 1.62394 13.7607C1.6368 13.7847 1.65599 13.8046 1.67941 13.8184C1.70283 13.8321 1.72958 13.8392 1.75675 13.8388H14.2575C14.2847 13.8392 14.3114 13.8321 14.3349 13.8184C14.3583 13.8046 14.3775 13.7847 14.3903 13.7607C14.4042 13.737 14.4115 13.7101 14.4117 13.6827C14.4118 13.6553 14.4047 13.6283 14.3911 13.6045L14.3849 13.599Z" fill="white"/>
</svg>
