<svg width="10" height="10" viewBox="0 0 10 10" fill="none" xmlns="http://www.w3.org/2000/svg">
<path d="M9.48372 8.30685L7.92793 0.909971C7.90781 0.813241 7.86878 0.721439 7.81307 0.63984C7.75736 0.558242 7.68608 0.488454 7.60332 0.434486C7.52056 0.380518 7.42796 0.343434 7.33082 0.325364C7.23369 0.307294 7.13394 0.308594 7.03731 0.32919L4.84309 0.800752C4.649 0.843249 4.47955 0.960659 4.37158 1.12744C4.2636 1.29423 4.22585 1.4969 4.26653 1.69138L5.82231 9.08825C5.85698 9.25701 5.9487 9.40869 6.08204 9.51779C6.21538 9.62688 6.38221 9.68675 6.5545 9.68731C6.60775 9.68724 6.66086 9.68159 6.71293 9.67044L8.90715 9.19888C9.10147 9.15628 9.2711 9.03864 9.37909 8.87156C9.48707 8.70449 9.52468 8.50152 9.48372 8.30685ZM5.00012 1.5381C5.00012 1.53528 5.00012 1.53388 5.00012 1.53388L7.19387 1.06513L7.34997 1.80903L5.15622 2.28106L5.00012 1.5381ZM5.31043 3.01325L7.50512 2.54216L7.66168 3.28747L5.46887 3.75903L5.31043 3.01325ZM5.62168 4.4931L7.81637 4.02153L8.43981 6.98591L6.24512 7.45747L5.62168 4.4931ZM8.75012 8.46575L6.55637 8.9345L6.40028 8.1906L8.59403 7.71856L8.75012 8.46153C8.75012 8.46435 8.75012 8.46575 8.75012 8.46575ZM3.50012 0.687315H1.25012C1.05121 0.687315 0.860444 0.766333 0.719792 0.906985C0.57914 1.04764 0.500122 1.2384 0.500122 1.43731V8.93731C0.500122 9.13623 0.57914 9.32699 0.719792 9.46765C0.860444 9.6083 1.05121 9.68731 1.25012 9.68731H3.50012C3.69903 9.68731 3.8898 9.6083 4.03045 9.46765C4.1711 9.32699 4.25012 9.13623 4.25012 8.93731V1.43731C4.25012 1.2384 4.1711 1.04764 4.03045 0.906985C3.8898 0.766333 3.69903 0.687315 3.50012 0.687315ZM1.25012 1.43731H3.50012V2.18731H1.25012V1.43731ZM1.25012 2.93731H3.50012V7.43731H1.25012V2.93731ZM3.50012 8.93731H1.25012V8.18731H3.50012V8.93731Z" fill="#BAC1CA"/>
</svg>
