<svg width="16" height="16" viewBox="0 0 16 16" fill="none" xmlns="http://www.w3.org/2000/svg">
<path d="M14.0357 2.42863H9.85713C9.49674 2.42863 9.1413 2.51254 8.81895 2.67371C8.49661 2.83488 8.21622 3.06889 7.99998 3.3572C7.78375 3.06889 7.50336 2.83488 7.18102 2.67371C6.85867 2.51254 6.50323 2.42863 6.14284 2.42863H1.96427C1.84113 2.42863 1.72304 2.47754 1.63597 2.56461C1.5489 2.65168 1.49998 2.76978 1.49998 2.89291V11.2501C1.49998 11.3732 1.5489 11.4913 1.63597 11.5784C1.72304 11.6654 1.84113 11.7143 1.96427 11.7143H6.14284C6.51225 11.7143 6.86653 11.8611 7.12774 12.1223C7.38895 12.3835 7.5357 12.7378 7.5357 13.1072C7.5357 13.2303 7.58461 13.3484 7.67169 13.4355C7.75876 13.5226 7.87685 13.5715 7.99998 13.5715C8.12312 13.5715 8.24121 13.5226 8.32828 13.4355C8.41535 13.3484 8.46427 13.2303 8.46427 13.1072C8.46427 12.7378 8.61102 12.3835 8.87223 12.1223C9.13344 11.8611 9.48772 11.7143 9.85713 11.7143H14.0357C14.1588 11.7143 14.2769 11.6654 14.364 11.5784C14.4511 11.4913 14.5 11.3732 14.5 11.2501V2.89291C14.5 2.76978 14.4511 2.65168 14.364 2.56461C14.2769 2.47754 14.1588 2.42863 14.0357 2.42863ZM6.14284 10.7858H2.42856V3.3572H6.14284C6.51225 3.3572 6.86653 3.50395 7.12774 3.76516C7.38895 4.02637 7.5357 4.38065 7.5357 4.75006V11.2501C7.13424 10.948 6.64526 10.785 6.14284 10.7858ZM13.5714 10.7858H9.85713C9.35471 10.785 8.86572 10.948 8.46427 11.2501V4.75006C8.46427 4.38065 8.61102 4.02637 8.87223 3.76516C9.13344 3.50395 9.48772 3.3572 9.85713 3.3572H13.5714V10.7858Z" fill="#283B52"/>
</svg>
