<svg width="14" height="12" viewBox="0 0 14 12" fill="none" xmlns="http://www.w3.org/2000/svg">
<path d="M11.6181 2.41658C11.02 1.81244 10.3086 1.33221 9.52464 1.00339C8.74066 0.674576 7.89953 0.503625 7.0494 0.500328H7.00002C5.27612 0.500328 3.62282 1.18515 2.40383 2.40413C1.18484 3.62312 0.500023 5.27642 0.500023 7.00033V10.5003C0.500023 10.8982 0.658058 11.2797 0.939363 11.561C1.22067 11.8423 1.6022 12.0003 2.00002 12.0003H3.00002C3.39785 12.0003 3.77938 11.8423 4.06068 11.561C4.34199 11.2797 4.50002 10.8982 4.50002 10.5003V8.00033C4.50002 7.6025 4.34199 7.22097 4.06068 6.93967C3.77938 6.65836 3.39785 6.50033 3.00002 6.50033H1.52252C1.64727 5.13383 2.27831 3.86331 3.29175 2.93822C4.3052 2.01312 5.62784 1.50026 7.00002 1.50033H7.0419C8.40836 1.5061 9.72341 2.02202 10.7293 2.94695C11.7351 3.87188 12.3593 5.13914 12.4794 6.50033H11C10.6022 6.50033 10.2207 6.65836 9.93936 6.93967C9.65806 7.22097 9.50002 7.6025 9.50002 8.00033V10.5003C9.50002 10.8982 9.65806 11.2797 9.93936 11.561C10.2207 11.8423 10.6022 12.0003 11 12.0003H12C12.3978 12.0003 12.7794 11.8423 13.0607 11.561C13.342 11.2797 13.5 10.8982 13.5 10.5003V7.00033C13.5033 6.15006 13.3387 5.30751 13.0158 4.52095C12.6929 3.73438 12.2179 3.01927 11.6181 2.41658ZM3.00002 7.50033C3.13263 7.50033 3.25981 7.55301 3.35358 7.64677C3.44734 7.74054 3.50002 7.86772 3.50002 8.00033V10.5003C3.50002 10.6329 3.44734 10.7601 3.35358 10.8539C3.25981 10.9476 3.13263 11.0003 3.00002 11.0003H2.00002C1.86741 11.0003 1.74024 10.9476 1.64647 10.8539C1.5527 10.7601 1.50002 10.6329 1.50002 10.5003V7.50033H3.00002ZM12.5 10.5003C12.5 10.6329 12.4473 10.7601 12.3536 10.8539C12.2598 10.9476 12.1326 11.0003 12 11.0003H11C10.8674 11.0003 10.7402 10.9476 10.6465 10.8539C10.5527 10.7601 10.5 10.6329 10.5 10.5003V8.00033C10.5 7.86772 10.5527 7.74054 10.6465 7.64677C10.7402 7.55301 10.8674 7.50033 11 7.50033H12.5V10.5003Z" fill="#283B52"/>
</svg>
