<svg width="22" height="21" viewBox="0 0 22 21" fill="none" xmlns="http://www.w3.org/2000/svg">
<path d="M14.8972 5.42256C14.2184 3.83346 13.0118 2.52748 11.4812 1.72541C9.95064 0.923345 8.19006 0.674399 6.49712 1.02066C4.80418 1.36692 3.28274 2.28715 2.19001 3.62576C1.09727 4.96438 0.500298 6.63926 0.5 8.36725V14.3672C0.5 14.7651 0.658035 15.1466 0.93934 15.4279C1.22064 15.7092 1.60218 15.8672 2 15.8672H7.12531C7.71058 17.2038 8.67231 18.341 9.8931 19.1401C11.1139 19.9392 12.5409 20.3656 14 20.3672H20C20.3978 20.3672 20.7794 20.2092 21.0607 19.9279C21.342 19.6466 21.5 19.2651 21.5 18.8672V12.8672C21.4996 11.0337 20.8277 9.26388 19.6111 7.89216C18.3945 6.52044 16.7175 5.64189 14.8972 5.42256ZM2 8.36725C2 7.18056 2.35189 6.02052 3.01118 5.03383C3.67047 4.04713 4.60754 3.2781 5.7039 2.82397C6.80026 2.36985 8.00666 2.25103 9.17054 2.48254C10.3344 2.71405 11.4035 3.28549 12.2426 4.12461C13.0818 4.96372 13.6532 6.03282 13.8847 7.19671C14.1162 8.36059 13.9974 9.56699 13.5433 10.6633C13.0892 11.7597 12.3201 12.6968 11.3334 13.3561C10.3467 14.0154 9.18669 14.3672 8 14.3672H2V8.36725ZM20 18.8672H14C12.939 18.866 11.8973 18.5841 10.9805 18.0502C10.0637 17.5162 9.30452 16.7492 8.78 15.8269C9.80723 15.7203 10.8013 15.4026 11.6999 14.8935C12.5985 14.3845 13.3822 13.6952 14.0018 12.869C14.6213 12.0427 15.0634 11.0973 15.3003 10.0921C15.5371 9.08685 15.5636 8.04351 15.3781 7.02756C16.6937 7.33803 17.8659 8.08362 18.7048 9.14353C19.5436 10.2034 20 11.5155 20 12.8672V18.8672Z" fill="#9299A2"/>
</svg>
