<svg width="24" height="25" viewBox="0 0 24 25" fill="none" xmlns="http://www.w3.org/2000/svg">
<path d="M22 17.3572V5.28719C22 4.08719 21.02 3.19719 19.83 3.29719H19.77C17.67 3.47719 14.48 4.54719 12.7 5.66719L12.53 5.77719C12.24 5.95719 11.76 5.95719 11.47 5.77719L11.22 5.62719C9.44 4.51719 6.26 3.45719 4.16 3.28719C2.97 3.18719 2 4.08719 2 5.27719V17.3572C2 18.3172 2.78 19.2172 3.74 19.3372L4.03 19.3772C6.2 19.6672 9.55 20.7672 11.47 21.8172L11.51 21.8372C11.78 21.9872 12.21 21.9872 12.47 21.8372C14.39 20.7772 17.75 19.6672 19.93 19.3772L20.26 19.3372C21.22 19.2172 22 18.3172 22 17.3572Z" stroke="#9299A2" stroke-width="1.5" stroke-linecap="round" stroke-linejoin="round"/>
<path d="M12 6.10718V21.1072" stroke="#9299A2" stroke-width="1.5" stroke-linecap="round" stroke-linejoin="round"/>
<path d="M7.75 9.10718H5.5" stroke="#9299A2" stroke-width="1.5" stroke-linecap="round" stroke-linejoin="round"/>
<path d="M8.5 12.1072H5.5" stroke="#9299A2" stroke-width="1.5" stroke-linecap="round" stroke-linejoin="round"/>
</svg>
