<svg width="13" height="13" viewBox="0 0 13 13" fill="none" xmlns="http://www.w3.org/2000/svg">
<path d="M12.2075 3.58555L9.41436 0.79305C9.3215 0.700168 9.21125 0.626488 9.08991 0.576219C8.96857 0.52595 8.83852 0.500076 8.70718 0.500076C8.57584 0.500076 8.44578 0.52595 8.32444 0.576219C8.2031 0.626488 8.09285 0.700168 7.99999 0.79305L0.293115 8.49993C0.199852 8.59245 0.125911 8.70259 0.0755892 8.82394C0.0252678 8.94529 -0.000429908 9.07543 -1.01994e-05 9.2068V11.9999C-1.01994e-05 12.2651 0.105347 12.5195 0.292883 12.707C0.480419 12.8946 0.734773 12.9999 0.99999 12.9999H3.79311C3.92448 13.0003 4.05463 12.9746 4.17598 12.9243C4.29733 12.874 4.40747 12.8001 4.49999 12.7068L9.72936 7.47805L9.94686 8.3468L7.64686 10.6462C7.55304 10.7399 7.5003 10.8671 7.50025 10.9997C7.50019 11.1323 7.55281 11.2595 7.64655 11.3534C7.74029 11.4472 7.86746 11.4999 8.00008 11.5C8.1327 11.5 8.25992 11.4474 8.35374 11.3537L10.8537 8.85368C10.9149 8.79264 10.9592 8.7168 10.9823 8.63356C11.0054 8.55031 11.0065 8.4625 10.9856 8.37867L10.5544 6.65305L12.2075 4.99993C12.3004 4.90706 12.3741 4.79681 12.4243 4.67547C12.4746 4.55413 12.5005 4.42408 12.5005 4.29274C12.5005 4.1614 12.4746 4.03134 12.4243 3.91C12.3741 3.78866 12.3004 3.67841 12.2075 3.58555ZM0.99999 10.2068L2.79311 11.9999H0.99999V10.2068ZM3.99999 11.7931L1.20686 8.99993L6.49999 3.7068L9.29311 6.49993L3.99999 11.7931ZM9.99999 5.79305L7.20749 2.99993L8.70749 1.49993L11.5 4.29305L9.99999 5.79305Z" fill="#283B52"/>
</svg>
