<svg width="24" height="25" viewBox="0 0 24 25" fill="none" xmlns="http://www.w3.org/2000/svg">
<path d="M12.16 11.4872C12.06 11.4772 11.94 11.4772 11.83 11.4872C9.45 11.4072 7.56 9.45719 7.56 7.05719C7.56 4.60719 9.54 2.61719 12 2.61719C14.45 2.61719 16.44 4.60719 16.44 7.05719C16.43 9.45719 14.54 11.4072 12.16 11.4872Z" stroke="#9299A2" stroke-width="1.5" stroke-linecap="round" stroke-linejoin="round"/>
<path d="M7.16 15.1772C4.74 16.7972 4.74 19.4372 7.16 21.0472C9.91 22.8872 14.42 22.8872 17.17 21.0472C19.59 19.4272 19.59 16.7872 17.17 15.1772C14.43 13.3472 9.92 13.3472 7.16 15.1772Z" stroke="#9299A2" stroke-width="1.5" stroke-linecap="round" stroke-linejoin="round"/>
</svg>
