<svg width="18" height="18" viewBox="0 0 18 18" fill="none" xmlns="http://www.w3.org/2000/svg">
<path d="M16.9686 16.2961L12.8933 12.2207C14.0554 10.8843 14.6533 9.14876 14.5608 7.38009C14.4683 5.61142 13.6927 3.94775 12.3975 2.73977C11.1023 1.53179 9.38869 0.873882 7.61787 0.904724C5.84705 0.935565 4.15738 1.65275 2.90504 2.9051C1.65269 4.15744 0.935504 5.84711 0.904663 7.61793C0.873821 9.38875 1.53173 11.1024 2.73971 12.3976C3.94769 13.6928 5.61136 14.4684 7.38003 14.5608C9.1487 14.6533 10.8842 14.0555 12.2207 12.8933L16.296 16.9687C16.3862 17.0528 16.5056 17.0985 16.6289 17.0964C16.7521 17.0942 16.8698 17.0442 16.957 16.957C17.0442 16.8698 17.0941 16.7522 17.0963 16.6289C17.0985 16.5056 17.0527 16.3863 16.9686 16.2961ZM1.8792 7.74878C1.8792 6.5879 2.22344 5.45309 2.86839 4.48785C3.51334 3.52261 4.43004 2.7703 5.50255 2.32605C6.57507 1.8818 7.75523 1.76556 8.89381 1.99204C10.0324 2.21852 11.0782 2.77754 11.8991 3.5984C12.72 4.41927 13.279 5.46512 13.5055 6.6037C13.7319 7.74227 13.6157 8.92244 13.1715 9.99495C12.7272 11.0675 11.9749 11.9842 11.0097 12.6291C10.0444 13.2741 8.90961 13.6183 7.74872 13.6183C6.19261 13.6164 4.70077 12.9974 3.60043 11.8971C2.50009 10.7967 1.88109 9.3049 1.8792 7.74878Z" fill="white"/>
</svg>
