<svg width="15" height="12" viewBox="0 0 15 12" fill="none" xmlns="http://www.w3.org/2000/svg">
<path d="M7.99998 8.35473C8.78379 7.86655 9.38728 7.13636 9.71915 6.27465C10.051 5.41294 10.0932 4.46659 9.83933 3.57876C9.58545 2.69094 9.04933 1.90996 8.31206 1.35397C7.5748 0.797976 6.67652 0.497231 5.75311 0.497231C4.8297 0.497231 3.93141 0.797976 3.19415 1.35397C2.45689 1.90996 1.92076 2.69094 1.66689 3.57876C1.41301 4.46659 1.4552 5.41294 1.78707 6.27465C2.11893 7.13636 2.72242 7.86655 3.50623 8.35473C2.21561 8.77723 1.05436 9.56661 0.120607 10.6779C0.0352404 10.7794 -0.00629789 10.9107 0.00513011 11.0428C0.0165581 11.175 0.0800163 11.2972 0.181544 11.3825C0.283073 11.4679 0.414354 11.5094 0.546509 11.498C0.678663 11.4866 0.800865 11.4231 0.886232 11.3216C2.14061 9.82411 3.86936 8.99973 5.74998 8.99973C7.63061 8.99973 9.35936 9.82411 10.6175 11.3216C10.7028 11.4231 10.8251 11.4866 10.9572 11.498C11.0894 11.5094 11.2206 11.4679 11.3222 11.3825C11.4237 11.2972 11.4872 11.175 11.4986 11.0428C11.51 10.9107 11.4685 10.7794 11.3831 10.6779C10.4487 9.56661 9.28748 8.77723 7.99998 8.35473ZM2.49998 4.74973C2.49998 4.10694 2.69059 3.47859 3.04771 2.94413C3.40482 2.40967 3.9124 1.99311 4.50626 1.74712C5.10012 1.50114 5.75359 1.43678 6.38403 1.56218C7.01446 1.68758 7.59356 1.99711 8.04808 2.45163C8.5026 2.90615 8.81213 3.48525 8.93753 4.11569C9.06294 4.74613 8.99858 5.39959 8.75259 5.99345C8.50661 6.58731 8.09004 7.09489 7.55558 7.45201C7.02113 7.80912 6.39277 7.99973 5.74998 7.99973C4.88833 7.99874 4.06226 7.65601 3.45298 7.04673C2.8437 6.43745 2.50097 5.61138 2.49998 4.74973ZM11.96 2.09973C12.3163 2.93778 12.5 3.83908 12.5 4.74973C12.5 5.66038 12.3163 6.56169 11.96 7.39973C11.9215 7.48987 11.8574 7.56672 11.7756 7.62072C11.6938 7.67473 11.598 7.70351 11.5 7.70348C11.4172 7.70355 11.3357 7.68306 11.2628 7.64387C11.1899 7.60468 11.1279 7.548 11.0823 7.47893C11.0367 7.40985 11.009 7.33054 11.0016 7.2481C10.9942 7.16567 11.0074 7.08269 11.04 7.00661C11.3435 6.29291 11.5 5.5253 11.5 4.74973C11.5 3.97416 11.3435 3.20656 11.04 2.49286C10.9879 2.37086 10.9863 2.23314 11.0357 2.11001C11.0851 1.98688 11.1814 1.88842 11.3034 1.83629C11.4254 1.78416 11.5631 1.78263 11.6863 1.83203C11.8094 1.88144 11.9079 1.97773 11.96 2.09973ZM14.5 4.74973C14.5023 5.93479 14.2622 7.1078 13.7944 8.19661C13.7396 8.31461 13.6411 8.40664 13.5196 8.45317C13.3982 8.4997 13.2633 8.49707 13.1438 8.44583C13.0242 8.39459 12.9294 8.29879 12.8793 8.17874C12.8292 8.05869 12.8279 7.92386 12.8756 7.80286C13.2876 6.8377 13.5 5.79914 13.5 4.74973C13.5 3.70032 13.2876 2.66176 12.8756 1.69661C12.8475 1.63592 12.8318 1.5702 12.8295 1.50335C12.8272 1.43649 12.8384 1.36986 12.8623 1.30739C12.8862 1.24492 12.9225 1.18789 12.9688 1.13967C13.0152 1.09146 13.0708 1.05304 13.1322 1.02669C13.1937 1.00033 13.2599 0.986589 13.3268 0.986264C13.3937 0.985938 13.4599 0.99904 13.5217 1.02479C13.5834 1.05054 13.6394 1.08842 13.6862 1.13618C13.733 1.18395 13.7698 1.24062 13.7944 1.30286C14.2622 2.39166 14.5023 3.56467 14.5 4.74973Z" fill="#283B52"/>
</svg>
